M48
;GenerationSoftware,Autodesk,EAGLE,9.5.2*%
;CreationDate,2021-01-04T18:37:04Z*%
FMAT,2
ICI,OFF
METRIC,TZ,000.000
T17C0.350
T16C0.450
T15C0.500
T14C0.800
T13C0.813
T12C0.900
T11C0.914
T10C1.000
T9C1.016
T8C1.300
T7C1.321
T6C1.400
T5C1.500
T4C2.200
T3C2.500
T2C3.000
T1C3.200
%
G90
M71
T1
X142469Y-38964
X-19583Y-38964
X142469Y104750
X-19583Y104750
T2
X55245Y76200
X84963Y60960
X97028Y85979
X67310Y101219
X0Y101346
X-8080Y101346
T3
X29820Y-37750
X29820Y-350
X10820Y-350
X10820Y-37750
T4
X96647Y-8636
X69977Y-27686
X69977Y-8636
T5
X49911Y77216
X49911Y59944
X89535Y59944
X89535Y77216
X101600Y102235
X101600Y84963
X61976Y84963
X61976Y102235
T6
X-13489Y56854
X137387Y-2836
X137187Y-21929
X129226Y-34546
X137387Y48091
X137187Y30649
X137387Y23326
X137387Y10626
X-13489Y-25061
X-13489Y-1947
X-13489Y33232
X-13489Y44916
X-13689Y3725
X-13489Y21548
X46313Y-35152
X-13489Y-13885
X137387Y61807
T7
X20752Y100711
X43256Y100711
T8
X137187Y35659
X-13489Y-18895
X137387Y18316
X-13489Y51844
X137387Y5616
X-13689Y8735
X-13489Y16538
X137387Y-7846
X-13489Y28222
X-13489Y39906
X137187Y-16919
X-13489Y-30071
X134236Y-34546
X-13489Y-6957
X137387Y43081
X41303Y-35152
X137387Y56797
T9
X109728Y96901
X54356Y51435
X49276Y51435
X113919Y78232
X113919Y83312
X53975Y101473
X109728Y101981
X122250Y-37567
X40132Y80264
X122250Y-33045
X40132Y87884
X100711Y68453
X100711Y76073
X130937Y81534
X130937Y76454
X135382Y89916
X115748Y-37567
X115748Y-33045
X140462Y89916
X121031Y96901
X121031Y91821
X53975Y96393
T10
X63627Y-14351
X63627Y-16891
X-19177Y70485
X63627Y-24511
X-19177Y75565
X-19177Y73025
X-19177Y67945
X21463Y67945
X21463Y70485
X21463Y73025
X21463Y75565
X63627Y-19431
X63627Y-21971
X99187Y-14351
X99187Y-16891
X99187Y-19431
X99187Y-21971
X63627Y-11811
T11
X108331Y38100
X762Y-18415
X762Y-20955
X-127Y46355
X-127Y48895
X-127Y51435
X-127Y53975
X-17424Y87020
X-17424Y89560
X108331Y30480
X108077Y21336
X108077Y23876
X120396Y-28702
X117856Y-28702
X81915Y-36068
X84455Y-36068
X86995Y-36068
X89535Y-36068
X92075Y-36068
X98298Y-36068
X100838Y-36068
X103378Y-36068
X105918Y-36068
X108458Y-36068
X110998Y-36068
X61595Y-36068
X64135Y-36068
X79375Y-36068
X66675Y-36068
X69215Y-36068
X108331Y33020
X108331Y27940
X38354Y49911
X35814Y49911
X39014Y59995
X36474Y59995
X33934Y59995
X71755Y-36068
X74295Y-36068
X108204Y-5969
X108204Y-3429
X108204Y-889
X108204Y1651
X108204Y4191
X108204Y9271
X108204Y6731
X108331Y35560
X108331Y40640
X108331Y43180
X108331Y45720
X108331Y48260
X108331Y50800
X-254Y-4699
X254Y26289
X254Y28829
X254Y21209
X254Y23749
X254Y18669
X254Y16129
X254Y13589
X254Y11049
X254Y8509
X-254Y2921
X-254Y-2159
X-254Y-7239
X127Y34290
X127Y36830
X127Y39370
X127Y41910
X762Y-25781
X762Y-28321
X762Y-30861
X762Y-33401
X762Y-13335
X762Y-15875
X105156Y-11557
X107696Y-11557
X-254Y381
X110236Y-11557
X112776Y-11557
X108077Y13716
X108077Y16256
X108077Y18796
T12
X5588Y88138
X508Y88138
X26830Y53594
X21430Y53594
X21430Y56094
X21430Y51094
X26830Y56094
X26830Y51094
T13
X10668Y54432
X10668Y51892
X-5969Y-12954
X-6604Y-35814
X-4064Y-35814
X10135Y41402
X10135Y38862
X-4547Y60325
X-7087Y60325
X57023Y-27305
X-5969Y-15494
X29337Y6223
X26797Y6223
X57023Y-29845
T14
X40132Y-22987
X42672Y-22987
X45212Y-22987
X45212Y-15367
X42672Y-15367
X40132Y-15367
X57150Y-13462
X54610Y-13462
X52070Y-13462
X52070Y-21082
X54610Y-21082
X57150Y-21082
X47244Y2667
X47244Y127
X47244Y-2413
X54864Y-2413
X54864Y127
X54864Y2667
X36576Y2413
X36576Y-127
X36576Y-2667
X44196Y-2667
X44196Y-127
X44196Y2413
X33655Y20066
X33655Y17526
X33655Y14986
X41275Y14986
X41275Y17526
X41275Y20066
X45847Y18161
X45847Y15621
X45847Y13081
X53467Y13081
X53467Y15621
X53467Y18161
X35966Y31420
X35966Y28880
X35966Y26340
X43586Y26340
X43586Y28880
X43586Y31420
X46228Y31750
X46228Y29210
X46228Y26670
X53848Y26670
X53848Y29210
X53848Y31750
X23139Y16002
X25679Y16002
X28219Y16002
X28219Y23622
X25679Y23622
X23139Y23622
X10947Y12903
X10947Y10363
X10947Y7823
X18567Y7823
X18567Y10363
X18567Y12903
X25933Y40284
X25933Y37744
X25933Y35204
X33553Y35204
X33553Y37744
X33553Y40284
X21590Y-2050
X19050Y-2050
X16510Y-2050
X13970Y-2050
X24130Y-2050
X26670Y-2050
X15392Y30861
X61849Y51362
X59309Y51362
X61849Y48822
X59309Y48822
X59309Y46282
X61849Y46282
X61849Y43742
X59309Y43742
X59309Y41202
X61849Y41202
X61849Y38662
X59309Y38662
X59309Y36122
X59309Y33582
X59309Y31042
X59309Y28502
X59309Y25962
X59309Y23422
X59309Y20882
X59309Y18342
X59309Y15802
X59309Y13262
X61849Y36122
X61849Y33582
X61849Y31042
X61849Y28502
X61849Y25962
X61849Y23422
X61849Y20882
X61849Y18342
X61849Y15802
X61849Y13262
X59309Y10722
X59309Y8182
X59309Y5642
X59309Y3102
X59309Y562
X61849Y562
X61849Y3102
X61849Y5642
X61849Y8182
X61849Y10722
X92329Y38662
X94869Y38662
X94869Y36122
X92329Y36122
X92329Y33582
X94869Y33582
X94869Y31042
X92329Y31042
X94869Y28502
X92329Y28502
X94869Y25962
X92329Y25962
X94869Y23422
X92329Y23422
X94869Y20882
X92329Y20882
X94869Y18342
X92329Y18342
X94869Y15802
X92329Y15802
X94869Y13262
X92329Y13262
X94869Y10722
X92329Y10722
X94869Y8182
X92329Y8182
X94869Y5642
X92329Y5642
X94869Y3102
X92329Y3102
X94869Y562
X92329Y562
X89789Y562
X89789Y3102
X87249Y3102
X87249Y562
X84709Y562
X84709Y3102
X72009Y3102
X72009Y562
X74549Y3102
X77089Y3102
X77089Y562
X74549Y562
X15392Y35941
X15392Y33401
X23012Y30861
X23012Y33401
X23012Y35941
T15
X47092Y53416
X112395Y97612
X116891Y88544
X106223Y84506
X114833Y72390
X137160Y74676
X130835Y69266
X129159Y48463
X124358Y48539
X130835Y36043
X126263Y33680
X118872Y36652
X128168Y27661
X130759Y26594
X124663Y19736
X131978Y18364
X133883Y21717
X132969Y25527
X117729Y12116
X126873Y12649
X134264Y13640
X128702Y12040
X136246Y8001
X133045Y3734
X132740Y-991
X132359Y-12421
X139979Y-12421
X134950Y-5486
X100660Y11049
X103480Y12040
X105689Y14021
X100432Y20955
X31547Y2896
X125273Y-23165
X129159Y-25375
X121387Y-25603
X115062Y-26289
X114148Y-30632
X126340Y-28499
X31318Y21184
X47625Y13411
X64846Y22022
X36881Y40157
X16916Y7391
X28118Y7468
X23851Y4801
X18745Y3200
X43510Y11049
X41394Y28821
X64541Y1753
X59360Y-18136
X50749Y-23241
X44348Y-16840
X43739Y-10820
X42824Y-13945
X35281Y-10516
X29794Y-13792
X43844Y24928
X20650Y42520
X28042Y19355
X35509Y44958
X11506Y22174
X112776Y-17831
X117094Y40259
X119888Y27686
X117704Y-11913
X38405Y44882
X30861Y59665
X8458Y16916
X7544Y20726
X33909Y5791
X59588Y-16154
X78410Y12421
X56617Y42139
X51816Y18974
X37490Y19202
X52578Y24155
X42367Y4953
X55169Y10363
X45949Y7315
X48616Y-19964
X64647Y76
X45339Y-19660
X66370Y13183
X65913Y11811
X128397Y87249
X7696Y24155
X32995Y13564
X23470Y13030
X35281Y13030
X38748Y-2324
X36195Y37109
X28156Y-4839
X109195Y-17297
X113157Y-27280
X126797Y59741
X34747Y11659
X45644Y24155
X9754Y35585
X130302Y18212
X129235Y25679
X126949Y34823
X132893Y8992
X112609Y-14822
X132359Y1143
X131191Y-8890
X119228Y30676
X122301Y36322
X123317Y83185
X95885Y43561
X94869Y47879
X115748Y25756
X123977Y11811
X119405Y1067
X34900Y3277
X105664Y12446
X131826Y-15697
X104648Y-6858
X104394Y7874
X111252Y20345
X55207Y11773
X89535Y17381
X104148Y-4843
X53721Y33909
X26899Y33071
X55245Y13411
X79705Y-4496
X73609Y4724
X24613Y12040
X63507Y26092
X65223Y27470
X68580Y28804
X50140Y25908
X68885Y-5715
X2819Y-1448
X71171Y-5486
X67593Y36122
X73076Y28804
X73000Y30632
X69008Y3505
X65532Y-7688
X67970Y4420
X64160Y-6629
X138303Y81686
X82601Y-29870
X64237Y-29413
X28423Y-19279
X70637Y32766
X94107Y-24308
X94869Y-25527
X95745Y-26632
X96317Y-28423
X95244Y-30258
X94336Y-31852
T16
X52045Y10135
X37127Y27145
X29718Y18440
X56236Y26975
X56388Y17069
X18974Y15164
X59817Y-8230
X30256Y15083
X34709Y9182
X24841Y33757
X30978Y31442
X34442Y-4801
X60413Y-11264
X50597Y32522
X46272Y34172
X39624Y15926
X48532Y16916
X49149Y2257
X18669Y20527
X47930Y15545
X47645Y20235
X34823Y38405
X41714Y12573
T17
X21184Y33071
X52824Y30955
X25903Y33610
X34384Y26535
X30023Y-6172
X111938Y5182
X45720Y37338
X111481Y-1905
X64922Y53797
M30