G04 EAGLE Gerber RS-274X export*
G75*
%MOMM*%
%FSLAX34Y34*%
%LPD*%
%IN*%
%IPPOS*%
%AMOC8*
5,1,8,0,0,1.08239X$1,22.5*%
G01*
%ADD10C,0.254000*%


D10*
X-216408Y-411480D02*
X1446276Y-411480D01*
X1446276Y1068324D01*
X-216408Y1068324D01*
X-216408Y-411480D01*
X54680Y871880D02*
X57680Y871880D01*
X57680Y889880D01*
X54680Y889880D01*
X54680Y871880D01*
X3680Y871880D02*
X6680Y871880D01*
X6680Y889880D01*
X3680Y889880D01*
X3680Y871880D01*
X1440686Y1046972D02*
X1440618Y1045927D01*
X1440481Y1044888D01*
X1440276Y1043861D01*
X1440005Y1042849D01*
X1439669Y1041857D01*
X1439268Y1040889D01*
X1438804Y1039950D01*
X1438281Y1039042D01*
X1437699Y1038171D01*
X1437061Y1037340D01*
X1436370Y1036553D01*
X1435629Y1035812D01*
X1434842Y1035121D01*
X1434011Y1034484D01*
X1433140Y1033902D01*
X1432232Y1033378D01*
X1431293Y1032914D01*
X1430325Y1032513D01*
X1429333Y1032177D01*
X1428321Y1031906D01*
X1427294Y1031701D01*
X1426255Y1031565D01*
X1425210Y1031496D01*
X1424162Y1031496D01*
X1423117Y1031565D01*
X1422078Y1031701D01*
X1421051Y1031906D01*
X1420039Y1032177D01*
X1419047Y1032513D01*
X1418079Y1032914D01*
X1417140Y1033378D01*
X1416232Y1033902D01*
X1415361Y1034484D01*
X1414530Y1035121D01*
X1413743Y1035812D01*
X1413002Y1036553D01*
X1412311Y1037340D01*
X1411674Y1038171D01*
X1411092Y1039042D01*
X1410568Y1039950D01*
X1410104Y1040889D01*
X1409703Y1041857D01*
X1409367Y1042849D01*
X1409096Y1043861D01*
X1408891Y1044888D01*
X1408755Y1045927D01*
X1408686Y1046972D01*
X1408686Y1048020D01*
X1408755Y1049065D01*
X1408891Y1050104D01*
X1409096Y1051131D01*
X1409367Y1052143D01*
X1409703Y1053135D01*
X1410104Y1054103D01*
X1410568Y1055042D01*
X1411092Y1055950D01*
X1411674Y1056821D01*
X1412311Y1057652D01*
X1413002Y1058439D01*
X1413743Y1059180D01*
X1414530Y1059871D01*
X1415361Y1060509D01*
X1416232Y1061091D01*
X1417140Y1061614D01*
X1418079Y1062078D01*
X1419047Y1062479D01*
X1420039Y1062815D01*
X1421051Y1063086D01*
X1422078Y1063291D01*
X1423117Y1063428D01*
X1424162Y1063496D01*
X1425210Y1063496D01*
X1426255Y1063428D01*
X1427294Y1063291D01*
X1428321Y1063086D01*
X1429333Y1062815D01*
X1430325Y1062479D01*
X1431293Y1062078D01*
X1432232Y1061614D01*
X1433140Y1061091D01*
X1434011Y1060509D01*
X1434842Y1059871D01*
X1435629Y1059180D01*
X1436370Y1058439D01*
X1437061Y1057652D01*
X1437699Y1056821D01*
X1438281Y1055950D01*
X1438804Y1055042D01*
X1439268Y1054103D01*
X1439669Y1053135D01*
X1440005Y1052143D01*
X1440276Y1051131D01*
X1440481Y1050104D01*
X1440618Y1049065D01*
X1440686Y1048020D01*
X1440686Y1046972D01*
X1440686Y-390160D02*
X1440618Y-391205D01*
X1440481Y-392244D01*
X1440276Y-393271D01*
X1440005Y-394283D01*
X1439669Y-395275D01*
X1439268Y-396243D01*
X1438804Y-397182D01*
X1438281Y-398090D01*
X1437699Y-398961D01*
X1437061Y-399792D01*
X1436370Y-400579D01*
X1435629Y-401320D01*
X1434842Y-402011D01*
X1434011Y-402649D01*
X1433140Y-403231D01*
X1432232Y-403754D01*
X1431293Y-404218D01*
X1430325Y-404619D01*
X1429333Y-404955D01*
X1428321Y-405226D01*
X1427294Y-405431D01*
X1426255Y-405568D01*
X1425210Y-405636D01*
X1424162Y-405636D01*
X1423117Y-405568D01*
X1422078Y-405431D01*
X1421051Y-405226D01*
X1420039Y-404955D01*
X1419047Y-404619D01*
X1418079Y-404218D01*
X1417140Y-403754D01*
X1416232Y-403231D01*
X1415361Y-402649D01*
X1414530Y-402011D01*
X1413743Y-401320D01*
X1413002Y-400579D01*
X1412311Y-399792D01*
X1411674Y-398961D01*
X1411092Y-398090D01*
X1410568Y-397182D01*
X1410104Y-396243D01*
X1409703Y-395275D01*
X1409367Y-394283D01*
X1409096Y-393271D01*
X1408891Y-392244D01*
X1408755Y-391205D01*
X1408686Y-390160D01*
X1408686Y-389112D01*
X1408755Y-388067D01*
X1408891Y-387028D01*
X1409096Y-386001D01*
X1409367Y-384989D01*
X1409703Y-383997D01*
X1410104Y-383029D01*
X1410568Y-382090D01*
X1411092Y-381182D01*
X1411674Y-380311D01*
X1412311Y-379480D01*
X1413002Y-378693D01*
X1413743Y-377952D01*
X1414530Y-377261D01*
X1415361Y-376624D01*
X1416232Y-376042D01*
X1417140Y-375518D01*
X1418079Y-375054D01*
X1419047Y-374653D01*
X1420039Y-374317D01*
X1421051Y-374046D01*
X1422078Y-373841D01*
X1423117Y-373705D01*
X1424162Y-373636D01*
X1425210Y-373636D01*
X1426255Y-373705D01*
X1427294Y-373841D01*
X1428321Y-374046D01*
X1429333Y-374317D01*
X1430325Y-374653D01*
X1431293Y-375054D01*
X1432232Y-375518D01*
X1433140Y-376042D01*
X1434011Y-376624D01*
X1434842Y-377261D01*
X1435629Y-377952D01*
X1436370Y-378693D01*
X1437061Y-379480D01*
X1437699Y-380311D01*
X1438281Y-381182D01*
X1438804Y-382090D01*
X1439268Y-383029D01*
X1439669Y-383997D01*
X1440005Y-384989D01*
X1440276Y-386001D01*
X1440481Y-387028D01*
X1440618Y-388067D01*
X1440686Y-389112D01*
X1440686Y-390160D01*
X-179834Y-390160D02*
X-179903Y-391205D01*
X-180039Y-392244D01*
X-180244Y-393271D01*
X-180515Y-394283D01*
X-180851Y-395275D01*
X-181252Y-396243D01*
X-181716Y-397182D01*
X-182240Y-398090D01*
X-182822Y-398961D01*
X-183459Y-399792D01*
X-184150Y-400579D01*
X-184891Y-401320D01*
X-185678Y-402011D01*
X-186509Y-402649D01*
X-187380Y-403231D01*
X-188288Y-403754D01*
X-189227Y-404218D01*
X-190195Y-404619D01*
X-191187Y-404955D01*
X-192199Y-405226D01*
X-193226Y-405431D01*
X-194265Y-405568D01*
X-195310Y-405636D01*
X-196358Y-405636D01*
X-197403Y-405568D01*
X-198442Y-405431D01*
X-199469Y-405226D01*
X-200481Y-404955D01*
X-201473Y-404619D01*
X-202441Y-404218D01*
X-203380Y-403754D01*
X-204288Y-403231D01*
X-205159Y-402649D01*
X-205990Y-402011D01*
X-206777Y-401320D01*
X-207518Y-400579D01*
X-208209Y-399792D01*
X-208847Y-398961D01*
X-209429Y-398090D01*
X-209952Y-397182D01*
X-210416Y-396243D01*
X-210817Y-395275D01*
X-211153Y-394283D01*
X-211424Y-393271D01*
X-211629Y-392244D01*
X-211766Y-391205D01*
X-211834Y-390160D01*
X-211834Y-389112D01*
X-211766Y-388067D01*
X-211629Y-387028D01*
X-211424Y-386001D01*
X-211153Y-384989D01*
X-210817Y-383997D01*
X-210416Y-383029D01*
X-209952Y-382090D01*
X-209429Y-381182D01*
X-208847Y-380311D01*
X-208209Y-379480D01*
X-207518Y-378693D01*
X-206777Y-377952D01*
X-205990Y-377261D01*
X-205159Y-376624D01*
X-204288Y-376042D01*
X-203380Y-375518D01*
X-202441Y-375054D01*
X-201473Y-374653D01*
X-200481Y-374317D01*
X-199469Y-374046D01*
X-198442Y-373841D01*
X-197403Y-373705D01*
X-196358Y-373636D01*
X-195310Y-373636D01*
X-194265Y-373705D01*
X-193226Y-373841D01*
X-192199Y-374046D01*
X-191187Y-374317D01*
X-190195Y-374653D01*
X-189227Y-375054D01*
X-188288Y-375518D01*
X-187380Y-376042D01*
X-186509Y-376624D01*
X-185678Y-377261D01*
X-184891Y-377952D01*
X-184150Y-378693D01*
X-183459Y-379480D01*
X-182822Y-380311D01*
X-182240Y-381182D01*
X-181716Y-382090D01*
X-181252Y-383029D01*
X-180851Y-383997D01*
X-180515Y-384989D01*
X-180244Y-386001D01*
X-180039Y-387028D01*
X-179903Y-388067D01*
X-179834Y-389112D01*
X-179834Y-390160D01*
X-179834Y1046972D02*
X-179903Y1045927D01*
X-180039Y1044888D01*
X-180244Y1043861D01*
X-180515Y1042849D01*
X-180851Y1041857D01*
X-181252Y1040889D01*
X-181716Y1039950D01*
X-182240Y1039042D01*
X-182822Y1038171D01*
X-183459Y1037340D01*
X-184150Y1036553D01*
X-184891Y1035812D01*
X-185678Y1035121D01*
X-186509Y1034484D01*
X-187380Y1033902D01*
X-188288Y1033378D01*
X-189227Y1032914D01*
X-190195Y1032513D01*
X-191187Y1032177D01*
X-192199Y1031906D01*
X-193226Y1031701D01*
X-194265Y1031565D01*
X-195310Y1031496D01*
X-196358Y1031496D01*
X-197403Y1031565D01*
X-198442Y1031701D01*
X-199469Y1031906D01*
X-200481Y1032177D01*
X-201473Y1032513D01*
X-202441Y1032914D01*
X-203380Y1033378D01*
X-204288Y1033902D01*
X-205159Y1034484D01*
X-205990Y1035121D01*
X-206777Y1035812D01*
X-207518Y1036553D01*
X-208209Y1037340D01*
X-208847Y1038171D01*
X-209429Y1039042D01*
X-209952Y1039950D01*
X-210416Y1040889D01*
X-210817Y1041857D01*
X-211153Y1042849D01*
X-211424Y1043861D01*
X-211629Y1044888D01*
X-211766Y1045927D01*
X-211834Y1046972D01*
X-211834Y1048020D01*
X-211766Y1049065D01*
X-211629Y1050104D01*
X-211424Y1051131D01*
X-211153Y1052143D01*
X-210817Y1053135D01*
X-210416Y1054103D01*
X-209952Y1055042D01*
X-209429Y1055950D01*
X-208847Y1056821D01*
X-208209Y1057652D01*
X-207518Y1058439D01*
X-206777Y1059180D01*
X-205990Y1059871D01*
X-205159Y1060509D01*
X-204288Y1061091D01*
X-203380Y1061614D01*
X-202441Y1062078D01*
X-201473Y1062479D01*
X-200481Y1062815D01*
X-199469Y1063086D01*
X-198442Y1063291D01*
X-197403Y1063428D01*
X-196358Y1063496D01*
X-195310Y1063496D01*
X-194265Y1063428D01*
X-193226Y1063291D01*
X-192199Y1063086D01*
X-191187Y1062815D01*
X-190195Y1062479D01*
X-189227Y1062078D01*
X-188288Y1061614D01*
X-187380Y1061091D01*
X-186509Y1060509D01*
X-185678Y1059871D01*
X-184891Y1059180D01*
X-184150Y1058439D01*
X-183459Y1057652D01*
X-182822Y1056821D01*
X-182240Y1055950D01*
X-181716Y1055042D01*
X-181252Y1054103D01*
X-180851Y1053135D01*
X-180515Y1052143D01*
X-180244Y1051131D01*
X-180039Y1050104D01*
X-179903Y1049065D01*
X-179834Y1048020D01*
X-179834Y1046972D01*
X297709Y-16000D02*
X296730Y-15923D01*
X295760Y-15769D01*
X294804Y-15540D01*
X293870Y-15236D01*
X292963Y-14861D01*
X292088Y-14415D01*
X291250Y-13901D01*
X290455Y-13324D01*
X289708Y-12686D01*
X289014Y-11992D01*
X288376Y-11245D01*
X287799Y-10450D01*
X287285Y-9612D01*
X286839Y-8737D01*
X286464Y-7830D01*
X286160Y-6896D01*
X285931Y-5941D01*
X285777Y-4970D01*
X285700Y-3991D01*
X285700Y-3009D01*
X285777Y-2030D01*
X285931Y-1060D01*
X286160Y-104D01*
X286464Y830D01*
X286839Y1737D01*
X287285Y2612D01*
X287799Y3450D01*
X288376Y4245D01*
X289014Y4992D01*
X289708Y5686D01*
X290455Y6324D01*
X291250Y6901D01*
X292088Y7415D01*
X292963Y7861D01*
X293870Y8236D01*
X294804Y8540D01*
X295760Y8769D01*
X296730Y8923D01*
X297709Y9000D01*
X298691Y9000D01*
X299670Y8923D01*
X300641Y8769D01*
X301596Y8540D01*
X302530Y8236D01*
X303437Y7861D01*
X304312Y7415D01*
X305150Y6901D01*
X305945Y6324D01*
X306692Y5686D01*
X307386Y4992D01*
X308024Y4245D01*
X308601Y3450D01*
X309115Y2612D01*
X309561Y1737D01*
X309936Y830D01*
X310240Y-104D01*
X310469Y-1060D01*
X310623Y-2030D01*
X310700Y-3009D01*
X310700Y-3991D01*
X310623Y-4970D01*
X310469Y-5941D01*
X310240Y-6896D01*
X309936Y-7830D01*
X309561Y-8737D01*
X309115Y-9612D01*
X308601Y-10450D01*
X308024Y-11245D01*
X307386Y-11992D01*
X306692Y-12686D01*
X305945Y-13324D01*
X305150Y-13901D01*
X304312Y-14415D01*
X303437Y-14861D01*
X302530Y-15236D01*
X301596Y-15540D01*
X300641Y-15769D01*
X299670Y-15923D01*
X298691Y-16000D01*
X297709Y-16000D01*
X297709Y-390000D02*
X296730Y-389923D01*
X295760Y-389769D01*
X294804Y-389540D01*
X293870Y-389236D01*
X292963Y-388861D01*
X292088Y-388415D01*
X291250Y-387901D01*
X290455Y-387324D01*
X289708Y-386686D01*
X289014Y-385992D01*
X288376Y-385245D01*
X287799Y-384450D01*
X287285Y-383612D01*
X286839Y-382737D01*
X286464Y-381830D01*
X286160Y-380896D01*
X285931Y-379941D01*
X285777Y-378970D01*
X285700Y-377991D01*
X285700Y-377009D01*
X285777Y-376030D01*
X285931Y-375060D01*
X286160Y-374104D01*
X286464Y-373170D01*
X286839Y-372263D01*
X287285Y-371388D01*
X287799Y-370550D01*
X288376Y-369755D01*
X289014Y-369008D01*
X289708Y-368314D01*
X290455Y-367676D01*
X291250Y-367099D01*
X292088Y-366585D01*
X292963Y-366139D01*
X293870Y-365764D01*
X294804Y-365460D01*
X295760Y-365231D01*
X296730Y-365077D01*
X297709Y-365000D01*
X298691Y-365000D01*
X299670Y-365077D01*
X300641Y-365231D01*
X301596Y-365460D01*
X302530Y-365764D01*
X303437Y-366139D01*
X304312Y-366585D01*
X305150Y-367099D01*
X305945Y-367676D01*
X306692Y-368314D01*
X307386Y-369008D01*
X308024Y-369755D01*
X308601Y-370550D01*
X309115Y-371388D01*
X309561Y-372263D01*
X309936Y-373170D01*
X310240Y-374104D01*
X310469Y-375060D01*
X310623Y-376030D01*
X310700Y-377009D01*
X310700Y-377991D01*
X310623Y-378970D01*
X310469Y-379941D01*
X310240Y-380896D01*
X309936Y-381830D01*
X309561Y-382737D01*
X309115Y-383612D01*
X308601Y-384450D01*
X308024Y-385245D01*
X307386Y-385992D01*
X306692Y-386686D01*
X305945Y-387324D01*
X305150Y-387901D01*
X304312Y-388415D01*
X303437Y-388861D01*
X302530Y-389236D01*
X301596Y-389540D01*
X300641Y-389769D01*
X299670Y-389923D01*
X298691Y-390000D01*
X297709Y-390000D01*
X107709Y-390000D02*
X106730Y-389923D01*
X105760Y-389769D01*
X104804Y-389540D01*
X103870Y-389236D01*
X102963Y-388861D01*
X102088Y-388415D01*
X101250Y-387901D01*
X100455Y-387324D01*
X99708Y-386686D01*
X99014Y-385992D01*
X98376Y-385245D01*
X97799Y-384450D01*
X97285Y-383612D01*
X96839Y-382737D01*
X96464Y-381830D01*
X96160Y-380896D01*
X95931Y-379941D01*
X95777Y-378970D01*
X95700Y-377991D01*
X95700Y-377009D01*
X95777Y-376030D01*
X95931Y-375060D01*
X96160Y-374104D01*
X96464Y-373170D01*
X96839Y-372263D01*
X97285Y-371388D01*
X97799Y-370550D01*
X98376Y-369755D01*
X99014Y-369008D01*
X99708Y-368314D01*
X100455Y-367676D01*
X101250Y-367099D01*
X102088Y-366585D01*
X102963Y-366139D01*
X103870Y-365764D01*
X104804Y-365460D01*
X105760Y-365231D01*
X106730Y-365077D01*
X107709Y-365000D01*
X108691Y-365000D01*
X109670Y-365077D01*
X110641Y-365231D01*
X111596Y-365460D01*
X112530Y-365764D01*
X113437Y-366139D01*
X114312Y-366585D01*
X115150Y-367099D01*
X115945Y-367676D01*
X116692Y-368314D01*
X117386Y-369008D01*
X118024Y-369755D01*
X118601Y-370550D01*
X119115Y-371388D01*
X119561Y-372263D01*
X119936Y-373170D01*
X120240Y-374104D01*
X120469Y-375060D01*
X120623Y-376030D01*
X120700Y-377009D01*
X120700Y-377991D01*
X120623Y-378970D01*
X120469Y-379941D01*
X120240Y-380896D01*
X119936Y-381830D01*
X119561Y-382737D01*
X119115Y-383612D01*
X118601Y-384450D01*
X118024Y-385245D01*
X117386Y-385992D01*
X116692Y-386686D01*
X115945Y-387324D01*
X115150Y-387901D01*
X114312Y-388415D01*
X113437Y-388861D01*
X112530Y-389236D01*
X111596Y-389540D01*
X110641Y-389769D01*
X109670Y-389923D01*
X108691Y-390000D01*
X107709Y-390000D01*
X107709Y-16000D02*
X106730Y-15923D01*
X105760Y-15769D01*
X104804Y-15540D01*
X103870Y-15236D01*
X102963Y-14861D01*
X102088Y-14415D01*
X101250Y-13901D01*
X100455Y-13324D01*
X99708Y-12686D01*
X99014Y-11992D01*
X98376Y-11245D01*
X97799Y-10450D01*
X97285Y-9612D01*
X96839Y-8737D01*
X96464Y-7830D01*
X96160Y-6896D01*
X95931Y-5941D01*
X95777Y-4970D01*
X95700Y-3991D01*
X95700Y-3009D01*
X95777Y-2030D01*
X95931Y-1060D01*
X96160Y-104D01*
X96464Y830D01*
X96839Y1737D01*
X97285Y2612D01*
X97799Y3450D01*
X98376Y4245D01*
X99014Y4992D01*
X99708Y5686D01*
X100455Y6324D01*
X101250Y6901D01*
X102088Y7415D01*
X102963Y7861D01*
X103870Y8236D01*
X104804Y8540D01*
X105760Y8769D01*
X106730Y8923D01*
X107709Y9000D01*
X108691Y9000D01*
X109670Y8923D01*
X110641Y8769D01*
X111596Y8540D01*
X112530Y8236D01*
X113437Y7861D01*
X114312Y7415D01*
X115150Y6901D01*
X115945Y6324D01*
X116692Y5686D01*
X117386Y4992D01*
X118024Y4245D01*
X118601Y3450D01*
X119115Y2612D01*
X119561Y1737D01*
X119936Y830D01*
X120240Y-104D01*
X120469Y-1060D01*
X120623Y-2030D01*
X120700Y-3009D01*
X120700Y-3991D01*
X120623Y-4970D01*
X120469Y-5941D01*
X120240Y-6896D01*
X119936Y-7830D01*
X119561Y-8737D01*
X119115Y-9612D01*
X118601Y-10450D01*
X118024Y-11245D01*
X117386Y-11992D01*
X116692Y-12686D01*
X115945Y-13324D01*
X115150Y-13901D01*
X114312Y-14415D01*
X113437Y-14861D01*
X112530Y-15236D01*
X111596Y-15540D01*
X110641Y-15769D01*
X109670Y-15923D01*
X108691Y-16000D01*
X107709Y-16000D01*
X710770Y-277292D02*
X710702Y-278154D01*
X710567Y-279008D01*
X710365Y-279848D01*
X710098Y-280670D01*
X709767Y-281469D01*
X709375Y-282239D01*
X708923Y-282976D01*
X708415Y-283675D01*
X707854Y-284333D01*
X707243Y-284944D01*
X706585Y-285505D01*
X705886Y-286013D01*
X705149Y-286465D01*
X704379Y-286857D01*
X703580Y-287188D01*
X702758Y-287455D01*
X701918Y-287657D01*
X701064Y-287792D01*
X700202Y-287860D01*
X699338Y-287860D01*
X698476Y-287792D01*
X697622Y-287657D01*
X696782Y-287455D01*
X695960Y-287188D01*
X695161Y-286857D01*
X694391Y-286465D01*
X693654Y-286013D01*
X692955Y-285505D01*
X692297Y-284944D01*
X691686Y-284333D01*
X691125Y-283675D01*
X690617Y-282976D01*
X690165Y-282239D01*
X689773Y-281469D01*
X689442Y-280670D01*
X689175Y-279848D01*
X688973Y-279008D01*
X688838Y-278154D01*
X688770Y-277292D01*
X688770Y-276428D01*
X688838Y-275566D01*
X688973Y-274712D01*
X689175Y-273872D01*
X689442Y-273050D01*
X689773Y-272251D01*
X690165Y-271481D01*
X690617Y-270744D01*
X691125Y-270045D01*
X691686Y-269387D01*
X692297Y-268776D01*
X692955Y-268215D01*
X693654Y-267707D01*
X694391Y-267255D01*
X695161Y-266863D01*
X695960Y-266532D01*
X696782Y-266265D01*
X697622Y-266063D01*
X698476Y-265928D01*
X699338Y-265860D01*
X700202Y-265860D01*
X701064Y-265928D01*
X701918Y-266063D01*
X702758Y-266265D01*
X703580Y-266532D01*
X704379Y-266863D01*
X705149Y-267255D01*
X705886Y-267707D01*
X706585Y-268215D01*
X707243Y-268776D01*
X707854Y-269387D01*
X708415Y-270045D01*
X708923Y-270744D01*
X709375Y-271481D01*
X709767Y-272251D01*
X710098Y-273050D01*
X710365Y-273872D01*
X710567Y-274712D01*
X710702Y-275566D01*
X710770Y-276428D01*
X710770Y-277292D01*
X710770Y-86792D02*
X710702Y-87654D01*
X710567Y-88508D01*
X710365Y-89348D01*
X710098Y-90170D01*
X709767Y-90969D01*
X709375Y-91739D01*
X708923Y-92476D01*
X708415Y-93175D01*
X707854Y-93833D01*
X707243Y-94444D01*
X706585Y-95005D01*
X705886Y-95513D01*
X705149Y-95965D01*
X704379Y-96357D01*
X703580Y-96688D01*
X702758Y-96955D01*
X701918Y-97157D01*
X701064Y-97292D01*
X700202Y-97360D01*
X699338Y-97360D01*
X698476Y-97292D01*
X697622Y-97157D01*
X696782Y-96955D01*
X695960Y-96688D01*
X695161Y-96357D01*
X694391Y-95965D01*
X693654Y-95513D01*
X692955Y-95005D01*
X692297Y-94444D01*
X691686Y-93833D01*
X691125Y-93175D01*
X690617Y-92476D01*
X690165Y-91739D01*
X689773Y-90969D01*
X689442Y-90170D01*
X689175Y-89348D01*
X688973Y-88508D01*
X688838Y-87654D01*
X688770Y-86792D01*
X688770Y-85928D01*
X688838Y-85066D01*
X688973Y-84212D01*
X689175Y-83372D01*
X689442Y-82550D01*
X689773Y-81751D01*
X690165Y-80981D01*
X690617Y-80244D01*
X691125Y-79545D01*
X691686Y-78887D01*
X692297Y-78276D01*
X692955Y-77715D01*
X693654Y-77207D01*
X694391Y-76755D01*
X695161Y-76363D01*
X695960Y-76032D01*
X696782Y-75765D01*
X697622Y-75563D01*
X698476Y-75428D01*
X699338Y-75360D01*
X700202Y-75360D01*
X701064Y-75428D01*
X701918Y-75563D01*
X702758Y-75765D01*
X703580Y-76032D01*
X704379Y-76363D01*
X705149Y-76755D01*
X705886Y-77207D01*
X706585Y-77715D01*
X707243Y-78276D01*
X707854Y-78887D01*
X708415Y-79545D01*
X708923Y-80244D01*
X709375Y-80981D01*
X709767Y-81751D01*
X710098Y-82550D01*
X710365Y-83372D01*
X710567Y-84212D01*
X710702Y-85066D01*
X710770Y-85928D01*
X710770Y-86792D01*
X977470Y-86792D02*
X977402Y-87654D01*
X977267Y-88508D01*
X977065Y-89348D01*
X976798Y-90170D01*
X976467Y-90969D01*
X976075Y-91739D01*
X975623Y-92476D01*
X975115Y-93175D01*
X974554Y-93833D01*
X973943Y-94444D01*
X973285Y-95005D01*
X972586Y-95513D01*
X971849Y-95965D01*
X971079Y-96357D01*
X970280Y-96688D01*
X969458Y-96955D01*
X968618Y-97157D01*
X967764Y-97292D01*
X966902Y-97360D01*
X966038Y-97360D01*
X965176Y-97292D01*
X964322Y-97157D01*
X963482Y-96955D01*
X962660Y-96688D01*
X961861Y-96357D01*
X961091Y-95965D01*
X960354Y-95513D01*
X959655Y-95005D01*
X958997Y-94444D01*
X958386Y-93833D01*
X957825Y-93175D01*
X957317Y-92476D01*
X956865Y-91739D01*
X956473Y-90969D01*
X956142Y-90170D01*
X955875Y-89348D01*
X955673Y-88508D01*
X955538Y-87654D01*
X955470Y-86792D01*
X955470Y-85928D01*
X955538Y-85066D01*
X955673Y-84212D01*
X955875Y-83372D01*
X956142Y-82550D01*
X956473Y-81751D01*
X956865Y-80981D01*
X957317Y-80244D01*
X957825Y-79545D01*
X958386Y-78887D01*
X958997Y-78276D01*
X959655Y-77715D01*
X960354Y-77207D01*
X961091Y-76755D01*
X961861Y-76363D01*
X962660Y-76032D01*
X963482Y-75765D01*
X964322Y-75563D01*
X965176Y-75428D01*
X966038Y-75360D01*
X966902Y-75360D01*
X967764Y-75428D01*
X968618Y-75563D01*
X969458Y-75765D01*
X970280Y-76032D01*
X971079Y-76363D01*
X971849Y-76755D01*
X972586Y-77207D01*
X973285Y-77715D01*
X973943Y-78276D01*
X974554Y-78887D01*
X975115Y-79545D01*
X975623Y-80244D01*
X976075Y-80981D01*
X976467Y-81751D01*
X976798Y-82550D01*
X977065Y-83372D01*
X977267Y-84212D01*
X977402Y-85066D01*
X977470Y-85928D01*
X977470Y-86792D01*
X567450Y761464D02*
X567374Y760396D01*
X567221Y759335D01*
X566993Y758288D01*
X566691Y757260D01*
X566317Y756256D01*
X565872Y755281D01*
X565358Y754341D01*
X564779Y753440D01*
X564137Y752582D01*
X563435Y751772D01*
X562678Y751015D01*
X561868Y750313D01*
X561010Y749671D01*
X560109Y749092D01*
X559169Y748578D01*
X558194Y748133D01*
X557190Y747759D01*
X556162Y747457D01*
X555115Y747229D01*
X554054Y747076D01*
X552986Y747000D01*
X551914Y747000D01*
X550846Y747076D01*
X549785Y747229D01*
X548738Y747457D01*
X547710Y747759D01*
X546706Y748133D01*
X545731Y748578D01*
X544791Y749092D01*
X543890Y749671D01*
X543032Y750313D01*
X542222Y751015D01*
X541465Y751772D01*
X540763Y752582D01*
X540121Y753440D01*
X539542Y754341D01*
X539028Y755281D01*
X538583Y756256D01*
X538209Y757260D01*
X537907Y758288D01*
X537679Y759335D01*
X537526Y760396D01*
X537450Y761464D01*
X537450Y762536D01*
X537526Y763604D01*
X537679Y764665D01*
X537907Y765712D01*
X538209Y766740D01*
X538583Y767744D01*
X539028Y768719D01*
X539542Y769659D01*
X540121Y770560D01*
X540763Y771418D01*
X541465Y772228D01*
X542222Y772985D01*
X543032Y773687D01*
X543890Y774329D01*
X544791Y774908D01*
X545731Y775422D01*
X546706Y775867D01*
X547710Y776241D01*
X548738Y776543D01*
X549785Y776771D01*
X550846Y776924D01*
X551914Y777000D01*
X552986Y777000D01*
X554054Y776924D01*
X555115Y776771D01*
X556162Y776543D01*
X557190Y776241D01*
X558194Y775867D01*
X559169Y775422D01*
X560109Y774908D01*
X561010Y774329D01*
X561868Y773687D01*
X562678Y772985D01*
X563435Y772228D01*
X564137Y771418D01*
X564779Y770560D01*
X565358Y769659D01*
X565872Y768719D01*
X566317Y767744D01*
X566691Y766740D01*
X566993Y765712D01*
X567221Y764665D01*
X567374Y763604D01*
X567450Y762536D01*
X567450Y761464D01*
X864630Y609064D02*
X864554Y607996D01*
X864401Y606935D01*
X864173Y605888D01*
X863871Y604860D01*
X863497Y603856D01*
X863052Y602881D01*
X862538Y601941D01*
X861959Y601040D01*
X861317Y600182D01*
X860615Y599372D01*
X859858Y598615D01*
X859048Y597913D01*
X858190Y597271D01*
X857289Y596692D01*
X856349Y596178D01*
X855374Y595733D01*
X854370Y595359D01*
X853342Y595057D01*
X852295Y594829D01*
X851234Y594676D01*
X850166Y594600D01*
X849094Y594600D01*
X848026Y594676D01*
X846965Y594829D01*
X845918Y595057D01*
X844890Y595359D01*
X843886Y595733D01*
X842911Y596178D01*
X841971Y596692D01*
X841070Y597271D01*
X840212Y597913D01*
X839402Y598615D01*
X838645Y599372D01*
X837943Y600182D01*
X837301Y601040D01*
X836722Y601941D01*
X836208Y602881D01*
X835763Y603856D01*
X835389Y604860D01*
X835087Y605888D01*
X834859Y606935D01*
X834706Y607996D01*
X834630Y609064D01*
X834630Y610136D01*
X834706Y611204D01*
X834859Y612265D01*
X835087Y613312D01*
X835389Y614340D01*
X835763Y615344D01*
X836208Y616319D01*
X836722Y617259D01*
X837301Y618160D01*
X837943Y619018D01*
X838645Y619828D01*
X839402Y620585D01*
X840212Y621287D01*
X841070Y621929D01*
X841971Y622508D01*
X842911Y623022D01*
X843886Y623467D01*
X844890Y623841D01*
X845918Y624143D01*
X846965Y624371D01*
X848026Y624524D01*
X849094Y624600D01*
X850166Y624600D01*
X851234Y624524D01*
X852295Y624371D01*
X853342Y624143D01*
X854370Y623841D01*
X855374Y623467D01*
X856349Y623022D01*
X857289Y622508D01*
X858190Y621929D01*
X859048Y621287D01*
X859858Y620585D01*
X860615Y619828D01*
X861317Y619018D01*
X861959Y618160D01*
X862538Y617259D01*
X863052Y616319D01*
X863497Y615344D01*
X863871Y614340D01*
X864173Y613312D01*
X864401Y612265D01*
X864554Y611204D01*
X864630Y610136D01*
X864630Y609064D01*
X688100Y1011654D02*
X688024Y1010586D01*
X687871Y1009525D01*
X687643Y1008478D01*
X687341Y1007450D01*
X686967Y1006446D01*
X686522Y1005471D01*
X686008Y1004531D01*
X685429Y1003630D01*
X684787Y1002772D01*
X684085Y1001962D01*
X683328Y1001205D01*
X682518Y1000503D01*
X681660Y999861D01*
X680759Y999282D01*
X679819Y998768D01*
X678844Y998323D01*
X677840Y997949D01*
X676812Y997647D01*
X675765Y997419D01*
X674704Y997266D01*
X673636Y997190D01*
X672564Y997190D01*
X671496Y997266D01*
X670435Y997419D01*
X669388Y997647D01*
X668360Y997949D01*
X667356Y998323D01*
X666381Y998768D01*
X665441Y999282D01*
X664540Y999861D01*
X663682Y1000503D01*
X662872Y1001205D01*
X662115Y1001962D01*
X661413Y1002772D01*
X660771Y1003630D01*
X660192Y1004531D01*
X659678Y1005471D01*
X659233Y1006446D01*
X658859Y1007450D01*
X658557Y1008478D01*
X658329Y1009525D01*
X658176Y1010586D01*
X658100Y1011654D01*
X658100Y1012726D01*
X658176Y1013794D01*
X658329Y1014855D01*
X658557Y1015902D01*
X658859Y1016930D01*
X659233Y1017934D01*
X659678Y1018909D01*
X660192Y1019849D01*
X660771Y1020750D01*
X661413Y1021608D01*
X662115Y1022418D01*
X662872Y1023175D01*
X663682Y1023877D01*
X664540Y1024519D01*
X665441Y1025098D01*
X666381Y1025612D01*
X667356Y1026057D01*
X668360Y1026431D01*
X669388Y1026733D01*
X670435Y1026961D01*
X671496Y1027114D01*
X672564Y1027190D01*
X673636Y1027190D01*
X674704Y1027114D01*
X675765Y1026961D01*
X676812Y1026733D01*
X677840Y1026431D01*
X678844Y1026057D01*
X679819Y1025612D01*
X680759Y1025098D01*
X681660Y1024519D01*
X682518Y1023877D01*
X683328Y1023175D01*
X684085Y1022418D01*
X684787Y1021608D01*
X685429Y1020750D01*
X686008Y1019849D01*
X686522Y1018909D01*
X686967Y1017934D01*
X687341Y1016930D01*
X687643Y1015902D01*
X687871Y1014855D01*
X688024Y1013794D01*
X688100Y1012726D01*
X688100Y1011654D01*
X985280Y859254D02*
X985204Y858186D01*
X985051Y857125D01*
X984823Y856078D01*
X984521Y855050D01*
X984147Y854046D01*
X983702Y853071D01*
X983188Y852131D01*
X982609Y851230D01*
X981967Y850372D01*
X981265Y849562D01*
X980508Y848805D01*
X979698Y848103D01*
X978840Y847461D01*
X977939Y846882D01*
X976999Y846368D01*
X976024Y845923D01*
X975020Y845549D01*
X973992Y845247D01*
X972945Y845019D01*
X971884Y844866D01*
X970816Y844790D01*
X969744Y844790D01*
X968676Y844866D01*
X967615Y845019D01*
X966568Y845247D01*
X965540Y845549D01*
X964536Y845923D01*
X963561Y846368D01*
X962621Y846882D01*
X961720Y847461D01*
X960862Y848103D01*
X960052Y848805D01*
X959295Y849562D01*
X958593Y850372D01*
X957951Y851230D01*
X957372Y852131D01*
X956858Y853071D01*
X956413Y854046D01*
X956039Y855050D01*
X955737Y856078D01*
X955509Y857125D01*
X955356Y858186D01*
X955280Y859254D01*
X955280Y860326D01*
X955356Y861394D01*
X955509Y862455D01*
X955737Y863502D01*
X956039Y864530D01*
X956413Y865534D01*
X956858Y866509D01*
X957372Y867449D01*
X957951Y868350D01*
X958593Y869208D01*
X959295Y870018D01*
X960052Y870775D01*
X960862Y871477D01*
X961720Y872119D01*
X962621Y872698D01*
X963561Y873212D01*
X964536Y873657D01*
X965540Y874031D01*
X966568Y874333D01*
X967615Y874561D01*
X968676Y874714D01*
X969744Y874790D01*
X970816Y874790D01*
X971884Y874714D01*
X972945Y874561D01*
X973992Y874333D01*
X975020Y874031D01*
X976024Y873657D01*
X976999Y873212D01*
X977939Y872698D01*
X978840Y872119D01*
X979698Y871477D01*
X980508Y870775D01*
X981265Y870018D01*
X981967Y869208D01*
X982609Y868350D01*
X983188Y867449D01*
X983702Y866509D01*
X984147Y865534D01*
X984521Y864530D01*
X984823Y863502D01*
X985051Y862455D01*
X985204Y861394D01*
X985280Y860326D01*
X985280Y859254D01*
M02*
