G04 EAGLE Gerber RS-274X export*
G75*
%MOMM*%
%FSLAX34Y34*%
%LPD*%
%INSolderpaste Bottom*%
%IPPOS*%
%AMOC8*
5,1,8,0,0,1.08239X$1,22.5*%
G01*
%ADD10R,1.600000X1.800000*%
%ADD11R,1.800000X1.600000*%
%ADD12R,5.400000X6.200000*%
%ADD13R,1.000000X1.600000*%
%ADD14R,1.803000X1.600000*%
%ADD15R,1.600000X1.803000*%
%ADD16R,1.700000X1.800000*%
%ADD17R,1.800000X1.700000*%


D10*
X1272570Y408940D03*
X1244570Y408940D03*
X1183610Y-214630D03*
X1211610Y-214630D03*
D11*
X1189990Y428020D03*
X1189990Y400020D03*
D10*
X1229390Y234950D03*
X1201390Y234950D03*
X1238280Y6350D03*
X1210280Y6350D03*
X1231422Y-130048D03*
X1203422Y-130048D03*
X1235680Y-168910D03*
X1263680Y-168910D03*
X1192500Y463550D03*
X1220500Y463550D03*
D11*
X1202690Y184120D03*
X1202690Y212120D03*
D10*
X1210280Y78740D03*
X1238280Y78740D03*
X1202660Y-53340D03*
X1230660Y-53340D03*
D11*
X1148842Y-170912D03*
X1148842Y-198912D03*
X957580Y742980D03*
X957580Y714980D03*
X1107440Y822990D03*
X1107440Y794990D03*
X1344930Y802670D03*
X1344930Y774670D03*
D10*
X1361410Y943610D03*
X1389410Y943610D03*
D11*
X1169670Y951260D03*
X1169670Y923260D03*
D10*
X1287810Y182626D03*
X1259810Y182626D03*
X547086Y-182880D03*
X575086Y-182880D03*
X542320Y80010D03*
X514320Y80010D03*
X415320Y74930D03*
X387320Y74930D03*
D11*
X374142Y175290D03*
X374142Y147290D03*
X499872Y156494D03*
X499872Y128494D03*
D10*
X410494Y255524D03*
X382494Y255524D03*
D11*
X512572Y275560D03*
X512572Y303560D03*
D10*
X254478Y211582D03*
X282478Y211582D03*
D11*
X164338Y128808D03*
X164338Y100808D03*
D10*
X1296954Y27178D03*
X1268954Y27178D03*
D11*
X303022Y366552D03*
X303022Y338552D03*
X192532Y352836D03*
X192532Y324836D03*
D10*
X825530Y-320040D03*
X797530Y-320040D03*
X1008410Y-316230D03*
X980410Y-316230D03*
X642650Y-323850D03*
X614650Y-323850D03*
X243810Y-69850D03*
X271810Y-69850D03*
D11*
X673100Y-217140D03*
X673100Y-245140D03*
X-155194Y704820D03*
X-155194Y732820D03*
X642620Y977930D03*
X642620Y949930D03*
X966470Y1005870D03*
X966470Y977870D03*
X50292Y514828D03*
X50292Y542828D03*
X57404Y-181326D03*
X57404Y-209326D03*
X-52070Y-285720D03*
X-52070Y-313720D03*
X-45466Y394686D03*
X-45466Y422686D03*
D10*
X1284000Y-101600D03*
X1256000Y-101600D03*
D12*
X1210310Y738270D03*
D13*
X1187510Y811270D03*
X1233110Y811270D03*
D12*
X1285240Y959720D03*
D13*
X1308040Y886720D03*
X1262440Y886720D03*
D14*
X1267460Y462530D03*
X1267460Y434090D03*
D15*
X1236730Y-214630D03*
X1265170Y-214630D03*
D14*
X1243330Y463800D03*
X1243330Y435360D03*
D15*
X1236214Y160528D03*
X1207774Y160528D03*
X1239770Y55880D03*
X1211330Y55880D03*
X1203710Y-77470D03*
X1232150Y-77470D03*
X1182628Y-164338D03*
X1211068Y-164338D03*
D14*
X1290320Y434090D03*
X1290320Y462530D03*
X1262380Y237740D03*
X1262380Y209300D03*
X1264920Y81530D03*
X1264920Y53090D03*
X1256030Y-49280D03*
X1256030Y-77720D03*
D15*
X1265170Y-191770D03*
X1236730Y-191770D03*
D14*
X382270Y-178820D03*
X382270Y-207260D03*
D15*
X407420Y-196850D03*
X435860Y-196850D03*
X371860Y116840D03*
X400300Y116840D03*
D14*
X1232916Y183900D03*
X1232916Y212340D03*
D15*
X478540Y241046D03*
X506980Y241046D03*
X180090Y299720D03*
X208530Y299720D03*
D14*
X488950Y-179320D03*
X488950Y-150880D03*
X517144Y-157738D03*
X517144Y-186178D03*
X486410Y53090D03*
X486410Y81530D03*
X1292860Y53090D03*
X1292860Y81530D03*
X514350Y25150D03*
X514350Y53590D03*
D15*
X383790Y52070D03*
X355350Y52070D03*
D14*
X405130Y23880D03*
X405130Y52320D03*
X390652Y202696D03*
X390652Y231136D03*
D15*
X326648Y226314D03*
X355088Y226314D03*
D14*
X500380Y211324D03*
X500380Y182884D03*
D15*
X445520Y218440D03*
X473960Y218440D03*
X387346Y353568D03*
X358906Y353568D03*
D14*
X408940Y317250D03*
X408940Y345690D03*
X515620Y369820D03*
X515620Y341380D03*
X490220Y336300D03*
X490220Y364740D03*
D15*
X201672Y230886D03*
X173232Y230886D03*
D14*
X203200Y178312D03*
X203200Y206752D03*
D15*
X142998Y199136D03*
X114558Y199136D03*
D14*
X166370Y169168D03*
X166370Y197608D03*
D15*
X282698Y425450D03*
X254258Y425450D03*
D14*
X305308Y397006D03*
X305308Y425446D03*
D15*
X181860Y407924D03*
X153420Y407924D03*
D14*
X212090Y376178D03*
X212090Y404618D03*
X1278890Y-77720D03*
X1278890Y-49280D03*
D11*
X519430Y718850D03*
X519430Y690850D03*
D15*
X783840Y93980D03*
X755400Y93980D03*
D10*
X755620Y60960D03*
X783620Y60960D03*
D14*
X720090Y90420D03*
X720090Y61980D03*
D11*
X648970Y513110D03*
X648970Y485110D03*
D14*
X1131570Y167390D03*
X1131570Y195830D03*
X1158240Y-15498D03*
X1158240Y-43938D03*
X1024890Y-71370D03*
X1024890Y-42930D03*
X1138174Y52828D03*
X1138174Y24388D03*
X1018540Y11180D03*
X1018540Y39620D03*
D15*
X1154172Y129032D03*
X1125732Y129032D03*
D11*
X1125220Y222220D03*
X1125220Y250220D03*
D10*
X1152622Y-74168D03*
X1180622Y-74168D03*
D11*
X1160018Y7590D03*
X1160018Y35590D03*
D10*
X1023650Y-15240D03*
X995650Y-15240D03*
D11*
X1145540Y77440D03*
X1145540Y105440D03*
X1018540Y62200D03*
X1018540Y90200D03*
D10*
X547086Y-159004D03*
X575086Y-159004D03*
D11*
X514350Y2570D03*
X514350Y-25430D03*
X403860Y30D03*
X403860Y-27970D03*
X313690Y194340D03*
X313690Y166340D03*
X436880Y154970D03*
X436880Y126970D03*
X387350Y320578D03*
X387350Y292578D03*
X491490Y303560D03*
X491490Y275560D03*
D10*
X232634Y188214D03*
X260634Y188214D03*
D11*
X139700Y145318D03*
X139700Y117318D03*
X281432Y387888D03*
X281432Y359888D03*
D16*
X1219200Y431980D03*
X1219200Y390980D03*
D17*
X1285166Y380238D03*
X1244166Y380238D03*
X1308026Y150622D03*
X1267026Y150622D03*
X1263830Y267716D03*
X1222830Y267716D03*
X1307264Y-762D03*
X1266264Y-762D03*
X1240970Y30734D03*
X1199970Y30734D03*
X1300660Y-132842D03*
X1259660Y-132842D03*
X1231572Y-103378D03*
X1190572Y-103378D03*
X1173046Y-191516D03*
X1214046Y-191516D03*
D16*
X1296416Y-215318D03*
X1296416Y-174318D03*
M02*
