G04 EAGLE Gerber RS-274X export*
G75*
%MOMM*%
%FSLAX34Y34*%
%LPD*%
%INSoldermask Top*%
%IPPOS*%
%AMOC8*
5,1,8,0,0,1.08239X$1,22.5*%
G01*
%ADD10C,3.403200*%
%ADD11R,2.003200X1.803200*%
%ADD12R,1.803200X2.003200*%
%ADD13C,2.743200*%
%ADD14P,2.969212X8X292.500000*%
%ADD15P,1.951982X8X22.500000*%
%ADD16C,1.803400*%
%ADD17P,1.951982X8X292.500000*%
%ADD18P,1.951982X8X112.500000*%
%ADD19P,1.951982X8X202.500000*%
%ADD20C,2.743200*%
%ADD21R,1.703200X1.703200*%
%ADD22C,2.703200*%
%ADD23C,1.879600*%
%ADD24R,2.006200X1.803200*%
%ADD25R,1.803200X2.006200*%
%ADD26C,1.625600*%
%ADD27C,5.403200*%
%ADD28C,2.403200*%
%ADD29R,1.711200X1.711200*%
%ADD30C,1.711200*%
%ADD31R,2.703200X2.703200*%
%ADD32C,3.203200*%
%ADD33C,1.879600*%
%ADD34C,2.453200*%
%ADD35C,1.727200*%
%ADD36P,3.629037X8X292.500000*%
%ADD37C,3.352800*%
%ADD38P,2.969212X8X22.500000*%
%ADD39P,2.969212X8X112.500000*%
%ADD40P,2.969212X8X202.500000*%
%ADD41C,1.611200*%
%ADD42R,1.611200X1.611200*%
%ADD43R,1.511200X1.511200*%
%ADD44C,1.511200*%
%ADD45R,2.003200X1.903200*%
%ADD46R,1.903200X2.003200*%


D10*
X1424686Y1047496D03*
X1424686Y-389636D03*
X-195834Y-389636D03*
X-195834Y1047496D03*
D11*
X1248410Y434310D03*
X1248410Y462310D03*
D12*
X1267490Y262890D03*
X1239490Y262890D03*
D11*
X1243330Y72360D03*
X1243330Y100360D03*
D12*
X1257330Y-92710D03*
X1229330Y-92710D03*
X1256000Y-195580D03*
X1284000Y-195580D03*
X1217138Y402590D03*
X1245138Y402590D03*
X1192246Y495300D03*
X1220246Y495300D03*
X1163544Y349250D03*
X1191544Y349250D03*
X1167100Y102870D03*
X1195100Y102870D03*
X1192500Y-13970D03*
X1220500Y-13970D03*
X1144240Y-222250D03*
X1172240Y-222250D03*
D11*
X1253236Y320070D03*
X1253236Y292070D03*
D13*
X1139190Y833120D03*
D14*
X1139190Y782320D03*
D11*
X360680Y-171480D03*
X360680Y-143480D03*
D15*
X293370Y62230D03*
D16*
X267970Y62230D03*
D17*
X570230Y-298450D03*
D16*
X570230Y-273050D03*
D12*
X1165830Y54610D03*
X1193830Y54610D03*
D18*
X106680Y544322D03*
D16*
X106680Y518922D03*
D17*
X-59690Y-154940D03*
D16*
X-59690Y-129540D03*
D19*
X-66040Y-358140D03*
D16*
X-40640Y-358140D03*
D11*
X1290320Y-77440D03*
X1290320Y-105440D03*
D18*
X101346Y414020D03*
D16*
X101346Y388620D03*
D15*
X-45466Y603250D03*
D16*
X-70866Y603250D03*
D12*
X1146780Y-176530D03*
X1174780Y-176530D03*
D20*
X207518Y994410D02*
X207518Y1019810D01*
X432562Y1019810D02*
X432562Y994410D01*
D21*
X414046Y-282956D03*
X449046Y-282956D03*
X112548Y168910D03*
X147548Y168910D03*
X248946Y453390D03*
X283946Y453390D03*
X166396Y402082D03*
X201396Y402082D03*
X1203960Y813790D03*
X1203960Y778790D03*
X1281430Y935710D03*
X1281430Y900710D03*
X1122400Y922020D03*
X1087400Y922020D03*
X536930Y-101092D03*
X501930Y-101092D03*
X476530Y62230D03*
X511530Y62230D03*
X373152Y60452D03*
X408152Y60452D03*
X367818Y118110D03*
X402818Y118110D03*
X471196Y218948D03*
X506196Y218948D03*
X360960Y353060D03*
X395960Y353060D03*
X476530Y353060D03*
X511530Y353060D03*
X202692Y164364D03*
X202692Y199364D03*
D22*
X298200Y-3500D03*
X298200Y-377500D03*
X108200Y-377500D03*
X108200Y-3500D03*
D23*
X215900Y-12118D02*
X215900Y-28882D01*
X190500Y-28882D02*
X190500Y-12118D01*
X165100Y-12118D02*
X165100Y-28882D01*
X139700Y-28882D02*
X139700Y-12118D01*
X241300Y-12118D02*
X241300Y-28882D01*
X266700Y-28882D02*
X266700Y-12118D01*
D24*
X1193800Y457450D03*
X1193800Y429010D03*
X1161796Y317750D03*
X1161796Y289310D03*
D25*
X1166880Y81280D03*
X1195320Y81280D03*
X1185930Y-45720D03*
X1214370Y-45720D03*
X1146560Y-199390D03*
X1175000Y-199390D03*
D24*
X1272540Y436630D03*
X1272540Y465070D03*
X1296670Y465070D03*
X1296670Y436630D03*
X1300226Y318766D03*
X1300226Y290326D03*
X1289050Y100580D03*
X1289050Y72140D03*
X1259840Y-41660D03*
X1259840Y-70100D03*
X1277620Y291850D03*
X1277620Y320290D03*
D25*
X1203710Y-198120D03*
X1232150Y-198120D03*
X420882Y-257302D03*
X449322Y-257302D03*
X404110Y-119380D03*
X375670Y-119380D03*
X589784Y-100076D03*
X561344Y-100076D03*
X561598Y-57912D03*
X590038Y-57912D03*
X413008Y-67056D03*
X441448Y-67056D03*
X476762Y94742D03*
X505202Y94742D03*
X407420Y232918D03*
X435860Y232918D03*
D24*
X314706Y256536D03*
X314706Y228096D03*
X216408Y98810D03*
X216408Y127250D03*
X327406Y285500D03*
X327406Y313940D03*
X478282Y-130552D03*
X478282Y-102112D03*
X535940Y90420D03*
X535940Y61980D03*
X441960Y60710D03*
X441960Y89150D03*
D25*
X371860Y91440D03*
X400300Y91440D03*
X556002Y218948D03*
X527562Y218948D03*
D24*
X1264920Y72140D03*
X1264920Y100580D03*
D25*
X447290Y353060D03*
X418850Y353060D03*
X481842Y376682D03*
X510282Y376682D03*
X115828Y194056D03*
X144268Y194056D03*
D24*
X1236980Y-68830D03*
X1236980Y-40390D03*
X171704Y193290D03*
X171704Y164850D03*
D25*
X334006Y453136D03*
X305566Y453136D03*
D24*
X224028Y425446D03*
X224028Y397006D03*
X1235710Y807970D03*
X1235710Y779530D03*
X1310640Y932430D03*
X1310640Y903990D03*
X1059180Y892560D03*
X1059180Y921000D03*
D25*
X1232150Y-176530D03*
X1203710Y-176530D03*
D26*
X1090422Y508000D02*
X1076198Y508000D01*
X1076198Y482600D02*
X1090422Y482600D01*
X1090422Y457200D02*
X1076198Y457200D01*
X1076198Y431800D02*
X1090422Y431800D01*
X1090422Y406400D02*
X1076198Y406400D01*
X1076198Y355600D02*
X1090422Y355600D01*
X1090422Y381000D02*
X1076198Y381000D01*
X1076198Y279400D02*
X1090422Y279400D01*
X1090422Y330200D02*
X1076198Y330200D01*
X1076198Y304800D02*
X1090422Y304800D01*
X-167132Y895604D02*
X-181356Y895604D01*
X-181356Y870204D02*
X-167132Y870204D01*
X-8382Y539750D02*
X5842Y539750D01*
X5842Y514350D02*
X-8382Y514350D01*
X-8382Y488950D02*
X5842Y488950D01*
X5842Y463550D02*
X-8382Y463550D01*
X508Y-209550D02*
X14732Y-209550D01*
X14732Y-184150D02*
X508Y-184150D01*
X508Y-158750D02*
X14732Y-158750D01*
X14732Y-133350D02*
X508Y-133350D01*
X508Y-334010D02*
X14732Y-334010D01*
X14732Y-308610D02*
X508Y-308610D01*
X508Y-283210D02*
X14732Y-283210D01*
X14732Y-257810D02*
X508Y-257810D01*
X-5842Y419100D02*
X8382Y419100D01*
X8382Y393700D02*
X-5842Y393700D01*
X-5842Y368300D02*
X8382Y368300D01*
X8382Y342900D02*
X-5842Y342900D01*
X-9652Y-72390D02*
X4572Y-72390D01*
X4572Y-46990D02*
X-9652Y-46990D01*
X-9652Y-21590D02*
X4572Y-21590D01*
X4572Y3810D02*
X-9652Y3810D01*
X-9652Y29210D02*
X4572Y29210D01*
X9652Y85090D02*
X-4572Y85090D01*
X-4572Y110490D02*
X9652Y110490D01*
X9652Y135890D02*
X-4572Y135890D01*
X-4572Y161290D02*
X9652Y161290D01*
X9652Y186690D02*
X-4572Y186690D01*
X-4572Y237490D02*
X9652Y237490D01*
X9652Y212090D02*
X-4572Y212090D01*
X-4572Y288290D02*
X9652Y288290D01*
X9652Y262890D02*
X-4572Y262890D01*
D27*
X0Y1013460D03*
X-80800Y1013460D03*
D28*
X699770Y-276860D03*
X699770Y-86360D03*
D29*
X636270Y-118110D03*
D30*
X636270Y-143510D03*
X636270Y-168910D03*
X636270Y-194310D03*
X636270Y-219710D03*
D29*
X991870Y-143510D03*
D30*
X991870Y-168910D03*
X991870Y-194310D03*
X991870Y-219710D03*
X636270Y-245110D03*
D28*
X966470Y-86360D03*
D29*
X214630Y755650D03*
D30*
X214630Y730250D03*
X214630Y704850D03*
X214630Y679450D03*
D29*
X-191770Y679450D03*
D30*
X-191770Y704850D03*
X-191770Y730250D03*
X-191770Y755650D03*
D31*
X499110Y772160D03*
X499110Y599440D03*
X895350Y599440D03*
X895350Y772160D03*
D32*
X552450Y762000D03*
X849630Y609600D03*
D33*
X618490Y513620D03*
X593090Y513620D03*
X618490Y488220D03*
X593090Y488220D03*
X593090Y462820D03*
X618490Y462820D03*
X618490Y437420D03*
X593090Y437420D03*
X593090Y412020D03*
X618490Y412020D03*
X618490Y386620D03*
X593090Y386620D03*
X593090Y361220D03*
X593090Y335820D03*
X593090Y310420D03*
X593090Y285020D03*
X593090Y259620D03*
X593090Y234220D03*
X593090Y208820D03*
X593090Y183420D03*
X593090Y158020D03*
X593090Y132620D03*
X618490Y361220D03*
X618490Y335820D03*
X618490Y310420D03*
X618490Y285020D03*
X618490Y259620D03*
X618490Y234220D03*
X618490Y208820D03*
X618490Y183420D03*
X618490Y158020D03*
X618490Y132620D03*
X593090Y107220D03*
X593090Y81820D03*
X593090Y56420D03*
X593090Y31020D03*
X593090Y5620D03*
X618490Y5620D03*
X618490Y31020D03*
X618490Y56420D03*
X618490Y81820D03*
X618490Y107220D03*
X923290Y386620D03*
X948690Y386620D03*
X948690Y361220D03*
X923290Y361220D03*
X923290Y335820D03*
X948690Y335820D03*
X948690Y310420D03*
X923290Y310420D03*
X948690Y285020D03*
X923290Y285020D03*
X948690Y259620D03*
X923290Y259620D03*
X948690Y234220D03*
X923290Y234220D03*
X948690Y208820D03*
X923290Y208820D03*
X948690Y183420D03*
X923290Y183420D03*
X948690Y158020D03*
X923290Y158020D03*
X948690Y132620D03*
X923290Y132620D03*
X948690Y107220D03*
X923290Y107220D03*
X948690Y81820D03*
X923290Y81820D03*
X948690Y56420D03*
X923290Y56420D03*
X948690Y31020D03*
X923290Y31020D03*
X948690Y5620D03*
X923290Y5620D03*
X897890Y5620D03*
X897890Y31020D03*
X872490Y31020D03*
X872490Y5620D03*
X847090Y5620D03*
X847090Y31020D03*
X720090Y31020D03*
X720090Y5620D03*
X745490Y31020D03*
X770890Y31020D03*
X770890Y5620D03*
X745490Y5620D03*
D34*
X-123640Y518440D02*
X-146140Y518440D01*
X-146140Y568540D02*
X-123640Y568540D01*
X1362620Y-78460D02*
X1385120Y-78460D01*
X1385120Y-28360D02*
X1362620Y-28360D01*
X1360620Y-169190D02*
X1383120Y-169190D01*
X1383120Y-219290D02*
X1360620Y-219290D01*
X1342364Y-334206D02*
X1342364Y-356706D01*
X1292264Y-356706D02*
X1292264Y-334206D01*
X1362620Y430810D02*
X1385120Y430810D01*
X1385120Y480910D02*
X1362620Y480910D01*
X1360620Y356590D02*
X1383120Y356590D01*
X1383120Y306490D02*
X1360620Y306490D01*
X1362620Y183160D02*
X1385120Y183160D01*
X1385120Y233260D02*
X1362620Y233260D01*
X1362620Y56160D02*
X1385120Y56160D01*
X1385120Y106260D02*
X1362620Y106260D01*
D35*
X1230122Y-375666D02*
X1214882Y-375666D01*
X1214882Y-330454D02*
X1230122Y-330454D01*
X1165098Y-375666D02*
X1149858Y-375666D01*
X1149858Y-330454D02*
X1165098Y-330454D01*
D36*
X401320Y802640D03*
D37*
X401320Y878840D03*
D36*
X1007110Y684530D03*
D37*
X1007110Y760730D03*
D13*
X1309370Y815340D03*
D14*
X1309370Y764540D03*
D13*
X1353820Y899160D03*
D38*
X1404620Y899160D03*
D13*
X1210310Y969010D03*
D14*
X1210310Y918210D03*
D13*
X539750Y963930D03*
D39*
X539750Y1014730D03*
D13*
X1097280Y1019810D03*
D14*
X1097280Y969010D03*
D13*
X543560Y514350D03*
D40*
X492760Y514350D03*
D26*
X339344Y592836D02*
X339344Y607060D01*
X364744Y607060D02*
X364744Y592836D01*
X390144Y592836D02*
X390144Y607060D01*
X358140Y506222D02*
X358140Y491998D01*
X383540Y491998D02*
X383540Y506222D01*
D41*
X5080Y874340D02*
X5080Y888420D01*
X55880Y888420D02*
X55880Y874340D01*
D25*
X957330Y612140D03*
X985770Y612140D03*
D21*
X1055090Y610870D03*
X1020090Y610870D03*
D34*
X413030Y-340270D02*
X413030Y-362770D01*
X463130Y-362770D02*
X463130Y-340270D01*
X-123640Y-300710D02*
X-146140Y-300710D01*
X-146140Y-250610D02*
X-123640Y-250610D01*
X-123640Y-188950D02*
X-146140Y-188950D01*
X-146140Y-138850D02*
X-123640Y-138850D01*
X-123640Y-69570D02*
X-146140Y-69570D01*
X-146140Y-19470D02*
X-123640Y-19470D01*
X-125640Y87350D02*
X-148140Y87350D01*
X-148140Y37250D02*
X-125640Y37250D01*
X-123640Y165380D02*
X-146140Y165380D01*
X-146140Y215480D02*
X-123640Y215480D01*
X-123640Y282220D02*
X-146140Y282220D01*
X-146140Y332320D02*
X-123640Y332320D01*
X-123640Y399060D02*
X-146140Y399060D01*
X-146140Y449160D02*
X-123640Y449160D01*
D26*
X1178560Y-279908D02*
X1178560Y-294132D01*
X1203960Y-294132D02*
X1203960Y-279908D01*
X1087882Y238760D02*
X1073658Y238760D01*
X1073658Y213360D02*
X1087882Y213360D01*
X1087882Y187960D02*
X1073658Y187960D01*
X1073658Y162560D02*
X1087882Y162560D01*
X1087882Y137160D02*
X1073658Y137160D01*
X1127760Y-108458D02*
X1127760Y-122682D01*
X1102360Y-122682D02*
X1102360Y-108458D01*
X1076960Y-108458D02*
X1076960Y-122682D01*
X1051560Y-122682D02*
X1051560Y-108458D01*
D11*
X361950Y-229900D03*
X361950Y-201900D03*
D26*
X793750Y-353568D02*
X793750Y-367792D01*
X819150Y-367792D02*
X819150Y-353568D01*
X844550Y-353568D02*
X844550Y-367792D01*
X869950Y-367792D02*
X869950Y-353568D01*
X895350Y-353568D02*
X895350Y-367792D01*
X920750Y-367792D02*
X920750Y-353568D01*
X982980Y-353568D02*
X982980Y-367792D01*
X1008380Y-367792D02*
X1008380Y-353568D01*
X1033780Y-353568D02*
X1033780Y-367792D01*
X1059180Y-367792D02*
X1059180Y-353568D01*
X1084580Y-353568D02*
X1084580Y-367792D01*
X1109980Y-367792D02*
X1109980Y-353568D01*
X615950Y-353568D02*
X615950Y-367792D01*
X641350Y-367792D02*
X641350Y-353568D01*
X666750Y-353568D02*
X666750Y-367792D01*
X692150Y-367792D02*
X692150Y-353568D01*
X717550Y-353568D02*
X717550Y-367792D01*
X742950Y-367792D02*
X742950Y-353568D01*
X1074928Y-59690D02*
X1089152Y-59690D01*
X1089152Y-34290D02*
X1074928Y-34290D01*
X1074928Y-8890D02*
X1089152Y-8890D01*
X1089152Y16510D02*
X1074928Y16510D01*
X1074928Y41910D02*
X1089152Y41910D01*
X1089152Y92710D02*
X1074928Y92710D01*
X1074928Y67310D02*
X1089152Y67310D01*
D34*
X1362620Y567970D02*
X1385120Y567970D01*
X1385120Y618070D02*
X1362620Y618070D01*
D42*
X268300Y535940D03*
X214300Y535940D03*
X214300Y560940D03*
X214300Y510940D03*
X268300Y560940D03*
X268300Y510940D03*
D31*
X619760Y1022350D03*
X619760Y849630D03*
X1016000Y849630D03*
X1016000Y1022350D03*
D32*
X673100Y1012190D03*
X970280Y859790D03*
D11*
X118110Y351566D03*
X118110Y323566D03*
D43*
X153924Y359410D03*
D44*
X153924Y334010D03*
X153924Y308610D03*
X230124Y308610D03*
X230124Y334010D03*
X230124Y359410D03*
D43*
X401320Y-229870D03*
D44*
X426720Y-229870D03*
X452120Y-229870D03*
X452120Y-153670D03*
X426720Y-153670D03*
X401320Y-153670D03*
D43*
X571500Y-134620D03*
D44*
X546100Y-134620D03*
X520700Y-134620D03*
X520700Y-210820D03*
X546100Y-210820D03*
X571500Y-210820D03*
D43*
X472440Y26670D03*
D44*
X472440Y1270D03*
X472440Y-24130D03*
X548640Y-24130D03*
X548640Y1270D03*
X548640Y26670D03*
D43*
X365760Y24130D03*
D44*
X365760Y-1270D03*
X365760Y-26670D03*
X441960Y-26670D03*
X441960Y-1270D03*
X441960Y24130D03*
D43*
X336550Y200660D03*
D44*
X336550Y175260D03*
X336550Y149860D03*
X412750Y149860D03*
X412750Y175260D03*
X412750Y200660D03*
D43*
X458470Y181610D03*
D44*
X458470Y156210D03*
X458470Y130810D03*
X534670Y130810D03*
X534670Y156210D03*
X534670Y181610D03*
D43*
X359664Y314198D03*
D44*
X359664Y288798D03*
X359664Y263398D03*
X435864Y263398D03*
X435864Y288798D03*
X435864Y314198D03*
D43*
X462280Y317500D03*
D44*
X462280Y292100D03*
X462280Y266700D03*
X538480Y266700D03*
X538480Y292100D03*
X538480Y317500D03*
D43*
X231394Y160020D03*
D44*
X256794Y160020D03*
X282194Y160020D03*
X282194Y236220D03*
X256794Y236220D03*
X231394Y236220D03*
D43*
X109474Y129032D03*
D44*
X109474Y103632D03*
X109474Y78232D03*
X185674Y78232D03*
X185674Y103632D03*
X185674Y129032D03*
D43*
X259334Y402844D03*
D44*
X259334Y377444D03*
X259334Y352044D03*
X335534Y352044D03*
X335534Y377444D03*
X335534Y402844D03*
D45*
X1284658Y376682D03*
X1243658Y376682D03*
D46*
X1219708Y428318D03*
X1219708Y469318D03*
D45*
X1187016Y324612D03*
X1228016Y324612D03*
D46*
X1212850Y256360D03*
X1212850Y297360D03*
D45*
X1224100Y42926D03*
X1265100Y42926D03*
D46*
X1219962Y77036D03*
X1219962Y118036D03*
D45*
X1267132Y-121412D03*
X1226132Y-121412D03*
D46*
X1199642Y-73734D03*
X1199642Y-114734D03*
D45*
X1162378Y-151384D03*
X1203378Y-151384D03*
X1258390Y-160528D03*
X1299390Y-160528D03*
M02*
