G04 EAGLE Gerber RS-274X export*
G75*
%MOMM*%
%FSLAX34Y34*%
%LPD*%
%INSolderpaste Top*%
%IPPOS*%
%AMOC8*
5,1,8,0,0,1.08239X$1,22.5*%
G01*
%ADD10R,1.800000X1.600000*%
%ADD11R,1.600000X1.800000*%
%ADD12R,1.500000X1.500000*%
%ADD13R,1.803000X1.600000*%
%ADD14R,1.600000X1.803000*%
%ADD15R,1.800000X1.700000*%
%ADD16R,1.700000X1.800000*%


D10*
X1248410Y434310D03*
X1248410Y462310D03*
D11*
X1267490Y262890D03*
X1239490Y262890D03*
D10*
X1243330Y72360D03*
X1243330Y100360D03*
D11*
X1257330Y-92710D03*
X1229330Y-92710D03*
X1256000Y-195580D03*
X1284000Y-195580D03*
X1217138Y402590D03*
X1245138Y402590D03*
X1192246Y495300D03*
X1220246Y495300D03*
X1163544Y349250D03*
X1191544Y349250D03*
X1167100Y102870D03*
X1195100Y102870D03*
X1192500Y-13970D03*
X1220500Y-13970D03*
X1144240Y-222250D03*
X1172240Y-222250D03*
D10*
X1253236Y320070D03*
X1253236Y292070D03*
X360680Y-171480D03*
X360680Y-143480D03*
D11*
X1165830Y54610D03*
X1193830Y54610D03*
D10*
X1290320Y-77440D03*
X1290320Y-105440D03*
D11*
X1146780Y-176530D03*
X1174780Y-176530D03*
D12*
X414046Y-282956D03*
X449046Y-282956D03*
X112548Y168910D03*
X147548Y168910D03*
X248946Y453390D03*
X283946Y453390D03*
X166396Y402082D03*
X201396Y402082D03*
X1203960Y813790D03*
X1203960Y778790D03*
X1281430Y935710D03*
X1281430Y900710D03*
X1122400Y922020D03*
X1087400Y922020D03*
X536930Y-101092D03*
X501930Y-101092D03*
X476530Y62230D03*
X511530Y62230D03*
X373152Y60452D03*
X408152Y60452D03*
X367818Y118110D03*
X402818Y118110D03*
X471196Y218948D03*
X506196Y218948D03*
X360960Y353060D03*
X395960Y353060D03*
X476530Y353060D03*
X511530Y353060D03*
X202692Y164364D03*
X202692Y199364D03*
D13*
X1193800Y457450D03*
X1193800Y429010D03*
X1161796Y317750D03*
X1161796Y289310D03*
D14*
X1166880Y81280D03*
X1195320Y81280D03*
X1185930Y-45720D03*
X1214370Y-45720D03*
X1146560Y-199390D03*
X1175000Y-199390D03*
D13*
X1272540Y436630D03*
X1272540Y465070D03*
X1296670Y465070D03*
X1296670Y436630D03*
X1300226Y318766D03*
X1300226Y290326D03*
X1289050Y100580D03*
X1289050Y72140D03*
X1259840Y-41660D03*
X1259840Y-70100D03*
X1277620Y291850D03*
X1277620Y320290D03*
D14*
X1203710Y-198120D03*
X1232150Y-198120D03*
X420882Y-257302D03*
X449322Y-257302D03*
X404110Y-119380D03*
X375670Y-119380D03*
X589784Y-100076D03*
X561344Y-100076D03*
X561598Y-57912D03*
X590038Y-57912D03*
X413008Y-67056D03*
X441448Y-67056D03*
X476762Y94742D03*
X505202Y94742D03*
X407420Y232918D03*
X435860Y232918D03*
D13*
X314706Y256536D03*
X314706Y228096D03*
X216408Y98810D03*
X216408Y127250D03*
X327406Y285500D03*
X327406Y313940D03*
X478282Y-130552D03*
X478282Y-102112D03*
X535940Y90420D03*
X535940Y61980D03*
X441960Y60710D03*
X441960Y89150D03*
D14*
X371860Y91440D03*
X400300Y91440D03*
X556002Y218948D03*
X527562Y218948D03*
D13*
X1264920Y72140D03*
X1264920Y100580D03*
D14*
X447290Y353060D03*
X418850Y353060D03*
X481842Y376682D03*
X510282Y376682D03*
X115828Y194056D03*
X144268Y194056D03*
D13*
X1236980Y-68830D03*
X1236980Y-40390D03*
X171704Y193290D03*
X171704Y164850D03*
D14*
X334006Y453136D03*
X305566Y453136D03*
D13*
X224028Y425446D03*
X224028Y397006D03*
X1235710Y807970D03*
X1235710Y779530D03*
X1310640Y932430D03*
X1310640Y903990D03*
X1059180Y892560D03*
X1059180Y921000D03*
D14*
X1232150Y-176530D03*
X1203710Y-176530D03*
X957330Y612140D03*
X985770Y612140D03*
D12*
X1055090Y610870D03*
X1020090Y610870D03*
D10*
X361950Y-229900D03*
X361950Y-201900D03*
X118110Y351566D03*
X118110Y323566D03*
D15*
X1284658Y376682D03*
X1243658Y376682D03*
D16*
X1219708Y428318D03*
X1219708Y469318D03*
D15*
X1187016Y324612D03*
X1228016Y324612D03*
D16*
X1212850Y256360D03*
X1212850Y297360D03*
D15*
X1224100Y42926D03*
X1265100Y42926D03*
D16*
X1219962Y77036D03*
X1219962Y118036D03*
D15*
X1267132Y-121412D03*
X1226132Y-121412D03*
D16*
X1199642Y-73734D03*
X1199642Y-114734D03*
D15*
X1162378Y-151384D03*
X1203378Y-151384D03*
X1258390Y-160528D03*
X1299390Y-160528D03*
M02*
